<?xml version="1.0"?>
<svg xmlns="http://www.w3.org/2000/svg" xmlns:xlink="http://www.w3.org/1999/xlink" version="1.1" viewBox="0 0 192 192" width="96px" height="96px"><g fill="none" fill-rule="nonzero" stroke="none" stroke-width="1" stroke-linecap="butt" stroke-linejoin="miter" stroke-miterlimit="10" stroke-dasharray="" stroke-dashoffset="0" font-family="none" font-weight="none" font-size="none" text-anchor="none" style="mix-blend-mode: normal"><path d="M0,192v-192h192v192z" fill="none"/><g fill="#ffffff"><path d="M96,16c-2.13695,0.00027 -4.18496,0.85549 -5.6875,2.375l-80.6875,70.40625c-1.02195,0.75409 -1.62505,1.9487 -1.625,3.21875c0,2.20914 1.79086,4 4,4h20v64c0,4.416 3.584,8 8,8h32c4.416,0 8,-3.584 8,-8v-48h32v48c0,4.416 3.584,8 8,8h32c4.416,0 8,-3.584 8,-8v-64h20c2.20914,0 4,-1.79086 4,-4c0.00005,-1.27005 -0.60305,-2.46466 -1.625,-3.21875l-80.64062,-70.35937c-0.01556,-0.01569 -0.03118,-0.03131 -0.04687,-0.04688c-1.50254,-1.51951 -3.55056,-2.37473 -5.6875,-2.375z"/></g></g></svg>
